<svg xmlns="http://www.w3.org/2000/svg" width="1160" height="800" viewBox="0 0 1160 800"><rect x="0" y="0" width="1160" height="800" rx="0" fill="#1d1d20"/><rect x="0" y="0" width="1160" height="46" rx="0" fill="#2e2e32"/><text x="24" y="29" fill="#ffffff80" font-family="Noto Sans, sans-serif" font-size="15" font-weight="400" text-anchor="start">⟳</text><text x="56" y="29" fill="#ffffff80" font-family="Noto Sans, sans-serif" font-size="15" font-weight="400" text-anchor="start">◧</text><text x="580" y="29" fill="#ffffff" font-family="Noto Sans, sans-serif" font-size="13" font-weight="500" text-anchor="middle">14 – 20 September 2026</text><rect x="742" y="10" width="84" height="26" rx="6" fill="#242428"/><text x="752" y="28" fill="#ffffff" font-family="Noto Sans, sans-serif" font-size="12" font-weight="400" text-anchor="start">Week</text><text x="816" y="28" fill="#ffffff80" font-family="Noto Sans, sans-serif" font-size="10" font-weight="400" text-anchor="start">▾</text><rect x="836" y="10" width="66" height="26" rx="6" fill="#242428"/><text x="848" y="28" fill="#ffffff" font-family="Noto Sans, sans-serif" font-size="12" font-weight="400" text-anchor="start">Today</text><rect x="910" y="10" width="64" height="26" rx="6" fill="#242428"/><text x="926" y="28" fill="#ffffff" font-family="Noto Sans, sans-serif" font-size="14" font-weight="400" text-anchor="start">‹</text><text x="958" y="28" fill="#ffffff" font-family="Noto Sans, sans-serif" font-size="14" font-weight="400" text-anchor="start">›</text><text x="716" y="29" fill="#ffffff80" font-family="Noto Sans, sans-serif" font-size="14" font-weight="400" text-anchor="start">☰</text><rect x="0" y="46" width="280" height="754" rx="0" fill="#242428"/><rect x="20" y="75" width="14" height="14" rx="3" fill="#e66100"/><circle cx="52" cy="82" r="11" fill="#e66100"/><text x="52" y="86" fill="#ffffff" font-family="Noto Sans, sans-serif" font-size="11" font-weight="500" text-anchor="middle">W</text><text x="72" y="86" fill="#ffffff" font-family="Noto Sans, sans-serif" font-size="13" font-weight="500" text-anchor="start">work</text><text x="252" y="86" fill="#ffffff80" font-family="Noto Sans, sans-serif" font-size="12" font-weight="400" text-anchor="start">👁</text><text x="72" y="108" fill="#ff7b63" font-family="Noto Sans, sans-serif" font-size="11" font-weight="400" text-anchor="start">Needs reconnecting</text><rect x="24" y="124" width="12" height="12" rx="3" fill="#e66100"/><text x="48" y="134" fill="#ffffff" font-family="Noto Sans, sans-serif" font-size="12" font-weight="400" text-anchor="start">Guilherme (work)</text><rect x="24" y="150" width="12" height="12" rx="3" fill="#e66100"/><text x="48" y="160" fill="#ffffff" font-family="Noto Sans, sans-serif" font-size="12" font-weight="400" text-anchor="start">On-call rota</text><rect x="24" y="176" width="12" height="12" rx="3" fill="#e66100"/><text x="48" y="186" fill="#ffffff" font-family="Noto Sans, sans-serif" font-size="12" font-weight="400" text-anchor="start">Team platform</text><rect x="24" y="202" width="12" height="12" rx="3" fill="#e66100"/><text x="48" y="212" fill="#ffffff80" font-family="Noto Sans, sans-serif" font-size="12" font-weight="400" text-anchor="start">Travel</text><text x="252" y="212" fill="#ffffff80" font-family="Noto Sans, sans-serif" font-size="12" font-weight="400" text-anchor="start">👁</text><rect x="20" y="243" width="14" height="14" rx="3" fill="#3584e4"/><circle cx="52" cy="250" r="11" fill="#3584e4"/><text x="52" y="254" fill="#ffffff" font-family="Noto Sans, sans-serif" font-size="11" font-weight="500" text-anchor="middle">P</text><text x="72" y="254" fill="#ffffff" font-family="Noto Sans, sans-serif" font-size="13" font-weight="500" text-anchor="start">personal</text><text x="252" y="254" fill="#ffffff80" font-family="Noto Sans, sans-serif" font-size="12" font-weight="400" text-anchor="start">👁</text><text x="72" y="276" fill="#ff7b63" font-family="Noto Sans, sans-serif" font-size="11" font-weight="400" text-anchor="start">Needs reconnecting</text><rect x="24" y="292" width="12" height="12" rx="3" fill="#3584e4"/><text x="48" y="302" fill="#ffffff" font-family="Noto Sans, sans-serif" font-size="12" font-weight="400" text-anchor="start">Personal</text><rect x="24" y="318" width="12" height="12" rx="3" fill="#3584e4"/><text x="48" y="328" fill="#ffffff" font-family="Noto Sans, sans-serif" font-size="12" font-weight="400" text-anchor="start">Birthdays</text><rect x="24" y="344" width="12" height="12" rx="3" fill="#3584e4"/><text x="48" y="354" fill="#ffffff" font-family="Noto Sans, sans-serif" font-size="12" font-weight="400" text-anchor="start">Health</text><rect x="24" y="370" width="12" height="12" rx="3" fill="#3584e4"/><text x="48" y="380" fill="#ffffff" font-family="Noto Sans, sans-serif" font-size="12" font-weight="400" text-anchor="start">Holidays in Spain</text><rect x="20" y="411" width="14" height="14" rx="3" fill="#33d17a"/><circle cx="52" cy="418" r="11" fill="#33d17a"/><text x="52" y="422" fill="#ffffff" font-family="Noto Sans, sans-serif" font-size="11" font-weight="500" text-anchor="middle">S</text><text x="72" y="422" fill="#ffffff" font-family="Noto Sans, sans-serif" font-size="13" font-weight="500" text-anchor="start">side</text><text x="252" y="422" fill="#ffffff80" font-family="Noto Sans, sans-serif" font-size="12" font-weight="400" text-anchor="start">👁</text><text x="72" y="444" fill="#ff7b63" font-family="Noto Sans, sans-serif" font-size="11" font-weight="400" text-anchor="start">Needs reconnecting</text><rect x="24" y="460" width="12" height="12" rx="3" fill="#33d17a"/><text x="48" y="470" fill="#ffffff" font-family="Noto Sans, sans-serif" font-size="12" font-weight="400" text-anchor="start">Side projects</text><rect x="24" y="486" width="12" height="12" rx="3" fill="#33d17a"/><text x="48" y="496" fill="#ffffff" font-family="Noto Sans, sans-serif" font-size="12" font-weight="400" text-anchor="start">Clients</text><rect x="24" y="512" width="12" height="12" rx="3" fill="#33d17a"/><text x="48" y="522" fill="#ffffff" font-family="Noto Sans, sans-serif" font-size="12" font-weight="400" text-anchor="start">OSS releases</text><text x="394.85714285714283" y="72" fill="#ffffff" font-family="Noto Sans, sans-serif" font-size="12" font-weight="500" text-anchor="middle">Mon</text><text x="394.85714285714283" y="88" fill="#ffffff80" font-family="Noto Sans, sans-serif" font-size="10" font-weight="400" text-anchor="middle">14 Sep</text><line x1="336.0" y1="100" x2="336.0" y2="800" stroke="#ffffff1f"/><text x="512.5714285714286" y="72" fill="#78aeed" font-family="Noto Sans, sans-serif" font-size="12" font-weight="500" text-anchor="middle">Tue</text><text x="512.5714285714286" y="88" fill="#ffffff80" font-family="Noto Sans, sans-serif" font-size="10" font-weight="400" text-anchor="middle">15 Sep</text><line x1="453.7142857142857" y1="100" x2="453.7142857142857" y2="800" stroke="#ffffff1f"/><text x="630.2857142857143" y="72" fill="#ffffff" font-family="Noto Sans, sans-serif" font-size="12" font-weight="500" text-anchor="middle">Wed</text><text x="630.2857142857143" y="88" fill="#ffffff80" font-family="Noto Sans, sans-serif" font-size="10" font-weight="400" text-anchor="middle">16 Sep</text><line x1="571.4285714285714" y1="100" x2="571.4285714285714" y2="800" stroke="#ffffff1f"/><text x="748.0" y="72" fill="#ffffff" font-family="Noto Sans, sans-serif" font-size="12" font-weight="500" text-anchor="middle">Thu</text><text x="748.0" y="88" fill="#ffffff80" font-family="Noto Sans, sans-serif" font-size="10" font-weight="400" text-anchor="middle">17 Sep</text><line x1="689.1428571428571" y1="100" x2="689.1428571428571" y2="800" stroke="#ffffff1f"/><text x="865.7142857142858" y="72" fill="#ffffff" font-family="Noto Sans, sans-serif" font-size="12" font-weight="500" text-anchor="middle">Fri</text><text x="865.7142857142858" y="88" fill="#ffffff80" font-family="Noto Sans, sans-serif" font-size="10" font-weight="400" text-anchor="middle">18 Sep</text><line x1="806.8571428571429" y1="100" x2="806.8571428571429" y2="800" stroke="#ffffff1f"/><text x="983.4285714285714" y="72" fill="#ffffff" font-family="Noto Sans, sans-serif" font-size="12" font-weight="500" text-anchor="middle">Sat</text><text x="983.4285714285714" y="88" fill="#ffffff80" font-family="Noto Sans, sans-serif" font-size="10" font-weight="400" text-anchor="middle">19 Sep</text><line x1="924.5714285714286" y1="100" x2="924.5714285714286" y2="800" stroke="#ffffff1f"/><text x="1101.142857142857" y="72" fill="#ffffff" font-family="Noto Sans, sans-serif" font-size="12" font-weight="500" text-anchor="middle">Sun</text><text x="1101.142857142857" y="88" fill="#ffffff80" font-family="Noto Sans, sans-serif" font-size="10" font-weight="400" text-anchor="middle">20 Sep</text><line x1="1042.2857142857142" y1="100" x2="1042.2857142857142" y2="800" stroke="#ffffff1f"/><rect x="280" y="100" width="880" height="44" rx="0" fill="#1d1d20"/><rect x="340" y="108" width="109.71428571428571" height="16" rx="3" fill="#3584e4"/><text x="346" y="120" fill="#ffffff" font-family="Noto Sans, sans-serif" font-size="9" font-weight="400" text-anchor="start">Fiesta local</text><line x1="280" y1="156" x2="1160" y2="156" stroke="#ffffff1f"/><text x="324" y="168" fill="#ffffff80" font-family="Noto Sans, sans-serif" font-size="10" font-weight="400" text-anchor="end">07:00</text><line x1="280" y1="176" x2="1160" y2="176" stroke="#ffffff1f"/><text x="324" y="188" fill="#ffffff80" font-family="Noto Sans, sans-serif" font-size="10" font-weight="400" text-anchor="end">08:00</text><line x1="280" y1="216" x2="1160" y2="216" stroke="#ffffff1f"/><text x="324" y="228" fill="#ffffff80" font-family="Noto Sans, sans-serif" font-size="10" font-weight="400" text-anchor="end">09:00</text><line x1="280" y1="256" x2="1160" y2="256" stroke="#ffffff1f"/><text x="324" y="268" fill="#ffffff80" font-family="Noto Sans, sans-serif" font-size="10" font-weight="400" text-anchor="end">10:00</text><line x1="280" y1="296" x2="1160" y2="296" stroke="#ffffff1f"/><text x="324" y="308" fill="#ffffff80" font-family="Noto Sans, sans-serif" font-size="10" font-weight="400" text-anchor="end">11:00</text><line x1="280" y1="336" x2="1160" y2="336" stroke="#ffffff1f"/><text x="324" y="348" fill="#ffffff80" font-family="Noto Sans, sans-serif" font-size="10" font-weight="400" text-anchor="end">12:00</text><line x1="280" y1="376" x2="1160" y2="376" stroke="#ffffff1f"/><text x="324" y="388" fill="#ffffff80" font-family="Noto Sans, sans-serif" font-size="10" font-weight="400" text-anchor="end">13:00</text><line x1="280" y1="416" x2="1160" y2="416" stroke="#ffffff1f"/><text x="324" y="428" fill="#ffffff80" font-family="Noto Sans, sans-serif" font-size="10" font-weight="400" text-anchor="end">14:00</text><line x1="280" y1="456" x2="1160" y2="456" stroke="#ffffff1f"/><text x="324" y="468" fill="#ffffff80" font-family="Noto Sans, sans-serif" font-size="10" font-weight="400" text-anchor="end">15:00</text><line x1="280" y1="496" x2="1160" y2="496" stroke="#ffffff1f"/><text x="324" y="508" fill="#ffffff80" font-family="Noto Sans, sans-serif" font-size="10" font-weight="400" text-anchor="end">16:00</text><line x1="280" y1="536" x2="1160" y2="536" stroke="#ffffff1f"/><text x="324" y="548" fill="#ffffff80" font-family="Noto Sans, sans-serif" font-size="10" font-weight="400" text-anchor="end">17:00</text><line x1="280" y1="576" x2="1160" y2="576" stroke="#ffffff1f"/><text x="324" y="588" fill="#ffffff80" font-family="Noto Sans, sans-serif" font-size="10" font-weight="400" text-anchor="end">18:00</text><line x1="280" y1="616" x2="1160" y2="616" stroke="#ffffff1f"/><text x="324" y="628" fill="#ffffff80" font-family="Noto Sans, sans-serif" font-size="10" font-weight="400" text-anchor="end">19:00</text><rect x="339.0" y="296" width="109.71428571428571" height="10" rx="3" opacity="0.28" fill="#e66100"/><rect x="339.0" y="306" width="109.71428571428571" height="34" rx="3" fill="#e66100"/><text x="345.0" y="319" fill="#ffffff" font-family="Noto Sans, sans-serif" font-size="10" font-weight="400" text-anchor="start">Sprint planning</text><rect x="456.7142857142857" y="266" width="109.71428571428571" height="10" rx="3" opacity="0.28" fill="#e66100"/><rect x="456.7142857142857" y="276" width="109.71428571428571" height="26" rx="3" fill="#e66100"/><text x="462.7142857142857" y="289" fill="#ffffff" font-family="Noto Sans, sans-serif" font-size="10" font-weight="400" text-anchor="start">Design review</text><rect x="574.4285714285714" y="336" width="109.71428571428571" height="10" rx="3" opacity="0.28" fill="#33d17a"/><rect x="574.4285714285714" y="346" width="109.71428571428571" height="30" rx="3" fill="#33d17a"/><text x="580.4285714285714" y="359" fill="#ffffff" font-family="Noto Sans, sans-serif" font-size="10" font-weight="400" text-anchor="start">CI window (UTC)</text><rect x="809.8571428571429" y="386" width="109.71428571428571" height="10" rx="3" opacity="0.28" fill="#33d17a"/><rect x="809.8571428571429" y="396" width="109.71428571428571" height="26" rx="3" fill="#33d17a"/><text x="815.8571428571429" y="409" fill="#ffffff" font-family="Noto Sans, sans-serif" font-size="10" font-weight="400" text-anchor="start">Client call</text><rect x="456.7142857142857" y="446" width="109.71428571428571" height="10" rx="3" opacity="0.28" fill="#c061cb"/><rect x="456.7142857142857" y="456" width="109.71428571428571" height="22" rx="3" fill="#c061cb"/><text x="462.7142857142857" y="469" fill="#ffffff" font-family="Noto Sans, sans-serif" font-size="10" font-weight="400" text-anchor="start">Piano lesson</text></svg>